# xmcd
#
# Track frame offsets:
# 182
# 33245
# 64852
# 78460
# 97972
# 138277
# 167577
# 192355
# 225432
# 264182
#
# Disc length: 4028 seconds
#
#
# Revision: 4
# Processed by: cddbd v1.5.2PL0 Copyright (c) Steve Scherf et al.
# Submitted via: FreeRIP 2.96 
#
DISCID=740fba0a
DTITLE=Premiata Foreneria Marconi - PerForMance
DYEAR=1982
DGENRE=Rock
TTITLE0=Maestro Della Voce
TTITLE1=Quartiere Otto (QT8)
TTITLE2=Lory
TTITLE3=Suonare Suonare
TTITLE4=Si Puo Fare
TTITLE5=Chi Ha Paura Della Notte
TTITLE6=Violino Performance
TTITLE7=Come Ti Va
TTITLE8=Il Banchetto
TTITLE9=Celebration
EXTD=
EXTT0=
EXTT1=
EXTT2=
EXTT3=
EXTT4=
EXTT5=
EXTT6=
EXTT7=
EXTT8=
EXTT9=
PLAYORDER=
